%TF.GenerationSoftware,KiCad,Pcbnew,4.0.6+dfsg1-1*%
%TF.CreationDate,2017-09-08T13:55:37+02:00*%
%TF.ProjectId,fx2grok-tiny,66783267726F6B2D74696E792E6B6963,rev?*%
%TF.FileFunction,Copper,L2,Bot,Signal*%
%FSLAX46Y46*%
G04 Gerber Fmt 4.6, Leading zero omitted, Abs format (unit mm)*
G04 Created by KiCad (PCBNEW 4.0.6+dfsg1-1) date Fri Sep  8 13:55:37 2017*
%MOMM*%
%LPD*%
G01*
G04 APERTURE LIST*
%ADD10C,0.150000*%
%ADD11C,0.127000*%
%ADD12R,0.599440X0.398780*%
%ADD13R,5.499100X4.800600*%
%ADD14R,0.690880X0.279400*%
%ADD15R,0.279400X0.690880*%
%ADD16R,0.398780X0.599440*%
%ADD17R,0.650240X0.749300*%
%ADD18R,2.200300X0.759460*%
%ADD19C,0.449580*%
G04 APERTURE END LIST*
D10*
D11*
X79702660Y-40341248D02*
X79672422Y-40292867D01*
X79672422Y-40220295D01*
X79702660Y-40147724D01*
X79763136Y-40099343D01*
X79823612Y-40075152D01*
X79944565Y-40050962D01*
X80035279Y-40050962D01*
X80156231Y-40075152D01*
X80216708Y-40099343D01*
X80277184Y-40147724D01*
X80307422Y-40220295D01*
X80307422Y-40268676D01*
X80277184Y-40341248D01*
X80246946Y-40365438D01*
X80035279Y-40365438D01*
X80035279Y-40268676D01*
X80307422Y-47338343D02*
X80307422Y-47048057D01*
X80307422Y-47193200D02*
X79672422Y-47193200D01*
X79763136Y-47144819D01*
X79823612Y-47096438D01*
X79853850Y-47048057D01*
D12*
X78601160Y-38399620D03*
X78601160Y-39298780D03*
X77343000Y-39311580D03*
X77343000Y-38412420D03*
D13*
X73101200Y-43865800D03*
D14*
X76946760Y-40612060D03*
X76946760Y-41112440D03*
X76946760Y-41612820D03*
X76946760Y-42113200D03*
X76946760Y-42611040D03*
X76946760Y-43111420D03*
X76946760Y-43611800D03*
X76946760Y-44112180D03*
X76946760Y-44612560D03*
X76946760Y-45112940D03*
X76946760Y-45613320D03*
X76946760Y-46113700D03*
X76946760Y-46611540D03*
X76946760Y-47111920D03*
D15*
X76347320Y-40012620D03*
X75846940Y-40012620D03*
X75346560Y-40012620D03*
X74846180Y-40012620D03*
X74345800Y-40012620D03*
X73845420Y-40012620D03*
X73345040Y-40012620D03*
X72847200Y-40012620D03*
X72346820Y-40012620D03*
X71846440Y-40012620D03*
X71346060Y-40012620D03*
X70845680Y-40012620D03*
X70345300Y-40012620D03*
X69847460Y-40012620D03*
D14*
X69245480Y-40612060D03*
X69245480Y-41064180D03*
X69245480Y-41562020D03*
X69245480Y-42062400D03*
X69245480Y-42562780D03*
X69245480Y-43063160D03*
X69245480Y-43563540D03*
X69245480Y-44063920D03*
X69245480Y-44564300D03*
X69245480Y-45062140D03*
X69245480Y-45562520D03*
X69245480Y-46062900D03*
X69245480Y-46563280D03*
X69245480Y-47063660D03*
D15*
X69844920Y-47663100D03*
X70345300Y-47663100D03*
X70845680Y-47663100D03*
X71346060Y-47663100D03*
X71846440Y-47663100D03*
X72346820Y-47663100D03*
X72847200Y-47663100D03*
X73345040Y-47663100D03*
X73845420Y-47663100D03*
X74345800Y-47663100D03*
X74846180Y-47663100D03*
X75346560Y-47663100D03*
X75846940Y-47663100D03*
X76347320Y-47663100D03*
D12*
X79639160Y-38615620D03*
X79639160Y-39514780D03*
D16*
X74861420Y-38481000D03*
X75760580Y-38481000D03*
X71569580Y-38862000D03*
X70670420Y-38862000D03*
X75242420Y-50165000D03*
X76141580Y-50165000D03*
X75242420Y-48768000D03*
X76141580Y-48768000D03*
D12*
X68300600Y-46499780D03*
X68300600Y-45600620D03*
X74295000Y-49598580D03*
X74295000Y-48699420D03*
X77406500Y-49535080D03*
X77406500Y-48635920D03*
D16*
X71432420Y-48895000D03*
X72331580Y-48895000D03*
D12*
X68300600Y-48300640D03*
X68300600Y-47401480D03*
D16*
X69420740Y-39065200D03*
X68521580Y-39065200D03*
D12*
X73279000Y-50233580D03*
X73279000Y-49334420D03*
X78740000Y-49143920D03*
X78740000Y-50043080D03*
D16*
X72956420Y-38735000D03*
X73855580Y-38735000D03*
D17*
X69476620Y-50129440D03*
X69476620Y-48831500D03*
X70477380Y-48831500D03*
X70477380Y-50129440D03*
D18*
X79281020Y-41127680D03*
X79281020Y-42402760D03*
X79281020Y-43677840D03*
X79281020Y-44952920D03*
X79281020Y-46228000D03*
D19*
X73850500Y-46824900D03*
X73149460Y-46875700D03*
X77800200Y-45974000D03*
X77800200Y-44856400D03*
X77724000Y-43688000D03*
X77800200Y-42646600D03*
X78613000Y-47371000D03*
X77724000Y-41097200D03*
X74549000Y-46736000D03*
X76174600Y-46939200D03*
X68707000Y-49149000D03*
X76454000Y-38354000D03*
X69215000Y-47752000D03*
X68326000Y-44958000D03*
X71882000Y-49530000D03*
X70500240Y-40876220D03*
X70104000Y-38227000D03*
X76454000Y-39243000D03*
X79756000Y-50038000D03*
X77406500Y-50165000D03*
X76174600Y-41224200D03*
X75184000Y-49403000D03*
X73152000Y-48641000D03*
X74295000Y-50292000D03*
X72390000Y-39243000D03*
D11*
X73845420Y-46829980D02*
X73845420Y-47663100D01*
X73850500Y-46824900D02*
X73845420Y-46829980D01*
X73149460Y-46875700D02*
X73345040Y-47071280D01*
X73345040Y-47071280D02*
X73345040Y-47663100D01*
X74345800Y-40012620D02*
X74345800Y-39352220D01*
X74345800Y-39352220D02*
X73855580Y-38735000D01*
X77800200Y-45974000D02*
X77439520Y-45613320D01*
X77439520Y-45613320D02*
X76946760Y-45613320D01*
X77724000Y-45466000D02*
X77370940Y-45112940D01*
X77370940Y-45112940D02*
X76946760Y-45112940D01*
X78232000Y-45847000D02*
X78656180Y-46271180D01*
X78232000Y-45720000D02*
X78232000Y-45847000D01*
X77978000Y-45466000D02*
X78232000Y-45720000D01*
X77724000Y-45466000D02*
X77978000Y-45466000D01*
X78656180Y-46271180D02*
X79458820Y-46271180D01*
X77800200Y-44856400D02*
X77556360Y-44612560D01*
X77556360Y-44612560D02*
X76946760Y-44612560D01*
X77597000Y-44323000D02*
X77386180Y-44112180D01*
X77597000Y-44323000D02*
X77978000Y-44323000D01*
X78651100Y-44996100D02*
X77978000Y-44323000D01*
X77386180Y-44112180D02*
X76946760Y-44112180D01*
X78651100Y-44996100D02*
X79458820Y-44996100D01*
X76946760Y-43611800D02*
X77647800Y-43611800D01*
X77647800Y-43611800D02*
X77724000Y-43688000D01*
X78392020Y-43721020D02*
X77782420Y-43111420D01*
X77782420Y-43111420D02*
X76946760Y-43111420D01*
X78392020Y-43721020D02*
X79458820Y-43721020D01*
X77800200Y-42646600D02*
X77764640Y-42611040D01*
X77764640Y-42611040D02*
X76946760Y-42611040D01*
X78259940Y-42445940D02*
X77927200Y-42113200D01*
X77927200Y-42113200D02*
X76946760Y-42113200D01*
X78259940Y-42445940D02*
X79458820Y-42445940D01*
X78259940Y-42445940D02*
X79458820Y-42445940D01*
X78846680Y-42445940D02*
X79458820Y-42445940D01*
X69847460Y-40012620D02*
X69847460Y-39585900D01*
X70317360Y-38862000D02*
X70670420Y-38862000D01*
X70114160Y-39065200D02*
X70317360Y-38862000D01*
X70114160Y-39319200D02*
X70114160Y-39065200D01*
X69847460Y-39585900D02*
X70114160Y-39319200D01*
X70485000Y-38862000D02*
X70670420Y-38862000D01*
X77978000Y-47371000D02*
X77718920Y-47111920D01*
X78740000Y-48768000D02*
X77978000Y-48006000D01*
X77978000Y-48006000D02*
X77978000Y-47371000D01*
X78740000Y-49143920D02*
X78740000Y-48768000D01*
X77718920Y-47111920D02*
X76946760Y-47111920D01*
X78613000Y-47371000D02*
X77853540Y-46611540D01*
X77853540Y-46611540D02*
X76946760Y-46611540D01*
X69245480Y-41064180D02*
X68684140Y-41064180D01*
X68521580Y-40901620D02*
X68521580Y-39065200D01*
X68684140Y-41064180D02*
X68521580Y-40901620D01*
X69476620Y-50129440D02*
X69476620Y-49852580D01*
X69476620Y-49852580D02*
X69850000Y-49530000D01*
X69850000Y-49530000D02*
X71247000Y-49530000D01*
X71247000Y-49530000D02*
X71432420Y-49344580D01*
X71432420Y-49344580D02*
X71432420Y-48895000D01*
X71432420Y-48895000D02*
X71432420Y-48709580D01*
X71432420Y-48709580D02*
X71846440Y-48295560D01*
X71846440Y-48295560D02*
X71846440Y-47663100D01*
X70477380Y-48831500D02*
X70477380Y-48582580D01*
X70477380Y-48582580D02*
X70104000Y-48234600D01*
X70104000Y-48234600D02*
X68341240Y-48234600D01*
X70477380Y-48831500D02*
X70497700Y-48831500D01*
X70497700Y-48831500D02*
X71346060Y-48000920D01*
X71346060Y-48000920D02*
X71346060Y-47663100D01*
X77724000Y-41097200D02*
X79250540Y-41097200D01*
X79250540Y-41097200D02*
X79281020Y-41127680D01*
X77724000Y-41097200D02*
X77734160Y-41087040D01*
X77734160Y-41087040D02*
X77734160Y-40335200D01*
X77734160Y-40335200D02*
X78115160Y-39954200D01*
X78601160Y-39849200D02*
X78601160Y-39298780D01*
X78496160Y-39954200D02*
X78601160Y-39849200D01*
X78115160Y-39954200D02*
X78496160Y-39954200D01*
X77729080Y-41102280D02*
X77724000Y-41097200D01*
X77729080Y-41102280D02*
X77754480Y-41127680D01*
X77754480Y-41127680D02*
X79281020Y-41127680D01*
X78516580Y-39298780D02*
X78601160Y-39298780D01*
X78601160Y-39298780D02*
X78672380Y-39370000D01*
X78672380Y-39370000D02*
X79494380Y-39370000D01*
X79494380Y-39370000D02*
X79639160Y-39514780D01*
X79580740Y-39573200D02*
X79639160Y-39514780D01*
X79580740Y-39573200D02*
X79639160Y-39514780D01*
X77343000Y-38412420D02*
X76512420Y-38412420D01*
X76512420Y-38412420D02*
X76454000Y-38354000D01*
X75346560Y-47335440D02*
X75742800Y-46939200D01*
X74549000Y-46736000D02*
X74345800Y-46939200D01*
X74345800Y-46939200D02*
X74345800Y-47663100D01*
X75742800Y-46939200D02*
X76174600Y-46939200D01*
X68300600Y-45600620D02*
X68338700Y-45562520D01*
X68338700Y-45562520D02*
X69245480Y-45562520D01*
X68300600Y-47401480D02*
X68638420Y-47063660D01*
X68638420Y-47063660D02*
X69245480Y-47063660D01*
X70345300Y-40012620D02*
X70345300Y-40721280D01*
X70345300Y-40721280D02*
X70500240Y-40876220D01*
X77597000Y-41656000D02*
X77724000Y-41529000D01*
X77724000Y-41529000D02*
X77724000Y-41097200D01*
X77724000Y-41097200D02*
X77724000Y-40767000D01*
X77597000Y-41656000D02*
X76989940Y-41656000D01*
X77724000Y-40767000D02*
X77569060Y-40612060D01*
X76946760Y-40612060D02*
X77569060Y-40612060D01*
X68707000Y-49149000D02*
X69024500Y-48831500D01*
X69024500Y-48831500D02*
X69476620Y-48831500D01*
X71882000Y-49530000D02*
X71282560Y-50129440D01*
X71282560Y-50129440D02*
X70477380Y-50129440D01*
X76454000Y-38354000D02*
X75887580Y-38354000D01*
X75887580Y-38354000D02*
X75760580Y-38481000D01*
X69245480Y-47063660D02*
X69245480Y-47721520D01*
X69245480Y-47721520D02*
X69215000Y-47752000D01*
X76141580Y-48768000D02*
X76073000Y-48768000D01*
X76073000Y-48768000D02*
X75346560Y-48008540D01*
X75346560Y-48008540D02*
X75346560Y-47663100D01*
X76141580Y-48572420D02*
X76347320Y-48366680D01*
X76347320Y-48366680D02*
X76347320Y-47663100D01*
X75346560Y-47663100D02*
X75346560Y-48008540D01*
X76141580Y-48768000D02*
X77274420Y-48768000D01*
X77274420Y-48768000D02*
X77406500Y-48635920D01*
X75346560Y-47663100D02*
X75346560Y-47335440D01*
X73279000Y-49334420D02*
X73279000Y-49149000D01*
X73279000Y-49149000D02*
X73728580Y-48699420D01*
X73728580Y-48699420D02*
X74295000Y-48699420D01*
X72331580Y-48895000D02*
X72331580Y-48963580D01*
X72331580Y-48963580D02*
X72702420Y-49334420D01*
X72702420Y-49334420D02*
X73279000Y-49334420D01*
X68300600Y-45600620D02*
X68300600Y-44983400D01*
X68300600Y-44983400D02*
X68326000Y-44958000D01*
X71882000Y-49530000D02*
X72331580Y-49080420D01*
X72331580Y-49080420D02*
X72331580Y-48895000D01*
X76141580Y-50165000D02*
X76141580Y-48768000D01*
X76141580Y-48768000D02*
X76141580Y-48572420D01*
X74295000Y-48699420D02*
X74295000Y-47713900D01*
X74295000Y-47713900D02*
X74345800Y-47663100D01*
X72331580Y-48895000D02*
X72331580Y-47678340D01*
X72331580Y-47678340D02*
X72346820Y-47663100D01*
X70345300Y-40721280D02*
X70500240Y-40876220D01*
X69240400Y-45567600D02*
X69245480Y-45562520D01*
X78601160Y-38399620D02*
X78948180Y-38399620D01*
X79164180Y-38615620D02*
X79639160Y-38615620D01*
X78948180Y-38399620D02*
X79164180Y-38615620D01*
X77343000Y-39311580D02*
X77436980Y-39311580D01*
X77436980Y-39311580D02*
X78348940Y-38399620D01*
X78348940Y-38399620D02*
X78601160Y-38399620D01*
X77343000Y-39311580D02*
X77386180Y-39311580D01*
X69420740Y-39065200D02*
X69245480Y-39240460D01*
X69245480Y-39240460D02*
X69245480Y-40612060D01*
X69420740Y-39065200D02*
X69420740Y-38488620D01*
X69682360Y-38227000D02*
X70104000Y-38227000D01*
X69420740Y-38488620D02*
X69682360Y-38227000D01*
X69824600Y-46649640D02*
X69738240Y-46563280D01*
X70899020Y-47099220D02*
X69974460Y-47099220D01*
X69974460Y-47099220D02*
X69824600Y-46949360D01*
X69824600Y-46949360D02*
X69824600Y-46649640D01*
X69738240Y-46563280D02*
X69245480Y-46563280D01*
X68300600Y-46499780D02*
X68364100Y-46563280D01*
X68364100Y-46563280D02*
X69245480Y-46563280D01*
X75572620Y-46550580D02*
X74846180Y-47277020D01*
X74846180Y-47277020D02*
X74846180Y-47663100D01*
X75948540Y-46550580D02*
X76385420Y-46113700D01*
X74846180Y-47663100D02*
X74846180Y-47277020D01*
X75572620Y-46550580D02*
X75948540Y-46550580D01*
X76385420Y-46113700D02*
X76946760Y-46113700D01*
X76946760Y-46113700D02*
X76934060Y-46101000D01*
X76934060Y-46101000D02*
X76301600Y-46101000D01*
X76174600Y-41224200D02*
X76286360Y-41112440D01*
X76286360Y-41112440D02*
X76946760Y-41112440D01*
X71569580Y-38862000D02*
X71569580Y-38422580D01*
X71569580Y-38422580D02*
X71247000Y-38100000D01*
X74861420Y-38481000D02*
X74861420Y-38412420D01*
X74861420Y-38412420D02*
X74549000Y-38100000D01*
X70231000Y-38100000D02*
X70104000Y-38227000D01*
X71247000Y-38100000D02*
X70231000Y-38100000D01*
X74549000Y-38100000D02*
X71247000Y-38100000D01*
X74295000Y-50292000D02*
X75115420Y-50292000D01*
X75115420Y-50292000D02*
X75242420Y-50165000D01*
X69245480Y-40612060D02*
X69283580Y-40573960D01*
X74846180Y-40012620D02*
X74846180Y-38496240D01*
X74846180Y-38496240D02*
X74861420Y-38481000D01*
X76454000Y-39243000D02*
X76454000Y-39199820D01*
X76454000Y-39199820D02*
X76454000Y-39243000D01*
X76454000Y-39243000D02*
X76454000Y-39199820D01*
X75044300Y-39199820D02*
X76454000Y-39199820D01*
X76454000Y-39199820D02*
X77231240Y-39199820D01*
X77231240Y-39199820D02*
X77343000Y-39311580D01*
X79750920Y-50043080D02*
X78740000Y-50043080D01*
X79756000Y-50038000D02*
X79750920Y-50043080D01*
X77406500Y-49535080D02*
X77406500Y-50165000D01*
X78740000Y-50043080D02*
X78226920Y-50043080D01*
X78105000Y-50165000D02*
X77406500Y-50165000D01*
X78226920Y-50043080D02*
X78105000Y-50165000D01*
X76174600Y-45974000D02*
X76174600Y-41224200D01*
X76301600Y-46101000D02*
X76174600Y-45974000D01*
X72847200Y-47663100D02*
X72847200Y-48336200D01*
X75242420Y-49461420D02*
X75242420Y-50165000D01*
X75184000Y-49403000D02*
X75242420Y-49461420D01*
X72847200Y-48336200D02*
X73152000Y-48641000D01*
X75311000Y-48768000D02*
X75692000Y-49149000D01*
X75692000Y-49911000D02*
X75438000Y-50165000D01*
X75692000Y-49149000D02*
X75692000Y-49911000D01*
X75438000Y-50165000D02*
X75242420Y-50165000D01*
X73279000Y-50233580D02*
X74236580Y-50233580D01*
X74236580Y-50233580D02*
X74295000Y-50292000D01*
X74295000Y-50292000D02*
X74295000Y-49598580D01*
X75242420Y-48699420D02*
X74846180Y-48303180D01*
X74846180Y-48303180D02*
X74846180Y-47663100D01*
X75044300Y-39199820D02*
X74846180Y-39397940D01*
X70845680Y-47152560D02*
X70845680Y-47663100D01*
X69215000Y-40642540D02*
X69245480Y-40612060D01*
X72748140Y-47099220D02*
X70899020Y-47099220D01*
X70899020Y-47099220D02*
X70845680Y-47152560D01*
X72847200Y-47663100D02*
X72847200Y-47198280D01*
X72847200Y-47198280D02*
X72748140Y-47099220D01*
X74846180Y-39397940D02*
X74846180Y-40012620D01*
X72898000Y-38735000D02*
X72390000Y-39243000D01*
M02*
