%TF.GenerationSoftware,KiCad,Pcbnew,4.0.6+dfsg1-1*%
%TF.CreationDate,2017-09-07T21:46:30+02:00*%
%TF.ProjectId,fx2grok-tiny,66783267726F6B2D74696E792E6B6963,rev?*%
%TF.FileFunction,Paste,Bot*%
%FSLAX46Y46*%
G04 Gerber Fmt 4.6, Leading zero omitted, Abs format (unit mm)*
G04 Created by KiCad (PCBNEW 4.0.6+dfsg1-1) date Thu Sep  7 21:46:30 2017*
%MOMM*%
%LPD*%
G01*
G04 APERTURE LIST*
%ADD10C,0.150000*%
%ADD11R,0.599440X0.398780*%
%ADD12R,5.499100X4.800600*%
%ADD13R,0.690880X0.279400*%
%ADD14R,0.279400X0.690880*%
%ADD15R,0.398780X0.599440*%
%ADD16R,0.650240X0.749300*%
%ADD17R,2.200300X0.759460*%
G04 APERTURE END LIST*
D10*
D11*
X77343000Y-39311580D03*
X77343000Y-38412420D03*
D12*
X73101200Y-43865800D03*
D13*
X76946760Y-40612060D03*
X76946760Y-41112440D03*
X76946760Y-41612820D03*
X76946760Y-42113200D03*
X76946760Y-42611040D03*
X76946760Y-43111420D03*
X76946760Y-43611800D03*
X76946760Y-44112180D03*
X76946760Y-44612560D03*
X76946760Y-45112940D03*
X76946760Y-45613320D03*
X76946760Y-46113700D03*
X76946760Y-46611540D03*
X76946760Y-47111920D03*
D14*
X76347320Y-40012620D03*
X75846940Y-40012620D03*
X75346560Y-40012620D03*
X74846180Y-40012620D03*
X74345800Y-40012620D03*
X73845420Y-40012620D03*
X73345040Y-40012620D03*
X72847200Y-40012620D03*
X72346820Y-40012620D03*
X71846440Y-40012620D03*
X71346060Y-40012620D03*
X70845680Y-40012620D03*
X70345300Y-40012620D03*
X69847460Y-40012620D03*
D13*
X69245480Y-40612060D03*
X69245480Y-41064180D03*
X69245480Y-41562020D03*
X69245480Y-42062400D03*
X69245480Y-42562780D03*
X69245480Y-43063160D03*
X69245480Y-43563540D03*
X69245480Y-44063920D03*
X69245480Y-44564300D03*
X69245480Y-45062140D03*
X69245480Y-45562520D03*
X69245480Y-46062900D03*
X69245480Y-46563280D03*
X69245480Y-47063660D03*
D14*
X69844920Y-47663100D03*
X70345300Y-47663100D03*
X70845680Y-47663100D03*
X71346060Y-47663100D03*
X71846440Y-47663100D03*
X72346820Y-47663100D03*
X72847200Y-47663100D03*
X73345040Y-47663100D03*
X73845420Y-47663100D03*
X74345800Y-47663100D03*
X74846180Y-47663100D03*
X75346560Y-47663100D03*
X75846940Y-47663100D03*
X76347320Y-47663100D03*
D11*
X79883000Y-38920420D03*
X79883000Y-39819580D03*
D15*
X74861420Y-38481000D03*
X75760580Y-38481000D03*
X71569580Y-38862000D03*
X70670420Y-38862000D03*
D11*
X78740000Y-38412420D03*
X78740000Y-39311580D03*
D15*
X75242420Y-50165000D03*
X76141580Y-50165000D03*
X75242420Y-48768000D03*
X76141580Y-48768000D03*
D11*
X68300600Y-46499780D03*
X68300600Y-45600620D03*
X74295000Y-49598580D03*
X74295000Y-48699420D03*
X77406500Y-49535080D03*
X77406500Y-48635920D03*
D15*
X71432420Y-48895000D03*
X72331580Y-48895000D03*
D11*
X68300600Y-48300640D03*
X68300600Y-47401480D03*
D15*
X69283580Y-38608000D03*
X68384420Y-38608000D03*
D11*
X73279000Y-50233580D03*
X73279000Y-49334420D03*
X78740000Y-49143920D03*
X78740000Y-50043080D03*
D15*
X72956420Y-38735000D03*
X73855580Y-38735000D03*
D16*
X69476620Y-50129440D03*
X69476620Y-48831500D03*
X70477380Y-48831500D03*
X70477380Y-50129440D03*
D17*
X79281020Y-41127680D03*
X79281020Y-42402760D03*
X79281020Y-43677840D03*
X79281020Y-44952920D03*
X79281020Y-46228000D03*
M02*
