M48
;DRILL file {KiCad 4.0.6+dfsg1-1} date Thu Sep  7 21:46:32 2017
;FORMAT={-:-/ absolute / inch / decimal}
FMAT,2
INCH,TZ
T1C0.008
%
G90
G05
M72
T1
X2.69Y-1.77
X2.705Y-1.935
X2.725Y-1.88
X2.76Y-1.505
X2.7756Y-1.6093
X2.83Y-1.95
X2.85Y-1.545
X2.8799Y-1.8455
X2.88Y-1.915
X2.9075Y-1.8435
X2.925Y-1.98
X2.935Y-1.84
X2.96Y-1.945
X2.999Y-1.623
X2.999Y-1.848
X3.01Y-1.51
X3.01Y-1.545
X3.0475Y-1.975
X3.05Y-1.575
X3.06Y-1.72
X3.063Y-1.679
X3.063Y-1.766
X3.063Y-1.81
X3.095Y-1.865
X3.105Y-1.5775
X3.14Y-1.97
T0
M30
