%TF.GenerationSoftware,KiCad,Pcbnew,4.0.6+dfsg1-1*%
%TF.CreationDate,2017-09-08T13:55:37+02:00*%
%TF.ProjectId,fx2grok-tiny,66783267726F6B2D74696E792E6B6963,rev?*%
%TF.FileFunction,Soldermask,Bot*%
%FSLAX46Y46*%
G04 Gerber Fmt 4.6, Leading zero omitted, Abs format (unit mm)*
G04 Created by KiCad (PCBNEW 4.0.6+dfsg1-1) date Fri Sep  8 13:55:37 2017*
%MOMM*%
%LPD*%
G01*
G04 APERTURE LIST*
%ADD10C,0.150000*%
%ADD11C,0.127000*%
%ADD12R,0.701040X0.500380*%
%ADD13R,5.600700X4.902200*%
%ADD14R,0.792480X0.381000*%
%ADD15R,0.381000X0.792480*%
%ADD16R,0.500380X0.701040*%
%ADD17R,0.751840X0.850900*%
%ADD18R,2.301900X0.861060*%
G04 APERTURE END LIST*
D10*
D11*
X79702660Y-40341248D02*
X79672422Y-40292867D01*
X79672422Y-40220295D01*
X79702660Y-40147724D01*
X79763136Y-40099343D01*
X79823612Y-40075152D01*
X79944565Y-40050962D01*
X80035279Y-40050962D01*
X80156231Y-40075152D01*
X80216708Y-40099343D01*
X80277184Y-40147724D01*
X80307422Y-40220295D01*
X80307422Y-40268676D01*
X80277184Y-40341248D01*
X80246946Y-40365438D01*
X80035279Y-40365438D01*
X80035279Y-40268676D01*
X80307422Y-47338343D02*
X80307422Y-47048057D01*
X80307422Y-47193200D02*
X79672422Y-47193200D01*
X79763136Y-47144819D01*
X79823612Y-47096438D01*
X79853850Y-47048057D01*
D12*
X78601160Y-38399620D03*
X78601160Y-39298780D03*
X77343000Y-39311580D03*
X77343000Y-38412420D03*
D13*
X73101200Y-43865800D03*
D14*
X76946760Y-40612060D03*
X76946760Y-41112440D03*
X76946760Y-41612820D03*
X76946760Y-42113200D03*
X76946760Y-42611040D03*
X76946760Y-43111420D03*
X76946760Y-43611800D03*
X76946760Y-44112180D03*
X76946760Y-44612560D03*
X76946760Y-45112940D03*
X76946760Y-45613320D03*
X76946760Y-46113700D03*
X76946760Y-46611540D03*
X76946760Y-47111920D03*
D15*
X76347320Y-40012620D03*
X75846940Y-40012620D03*
X75346560Y-40012620D03*
X74846180Y-40012620D03*
X74345800Y-40012620D03*
X73845420Y-40012620D03*
X73345040Y-40012620D03*
X72847200Y-40012620D03*
X72346820Y-40012620D03*
X71846440Y-40012620D03*
X71346060Y-40012620D03*
X70845680Y-40012620D03*
X70345300Y-40012620D03*
X69847460Y-40012620D03*
D14*
X69245480Y-40612060D03*
X69245480Y-41064180D03*
X69245480Y-41562020D03*
X69245480Y-42062400D03*
X69245480Y-42562780D03*
X69245480Y-43063160D03*
X69245480Y-43563540D03*
X69245480Y-44063920D03*
X69245480Y-44564300D03*
X69245480Y-45062140D03*
X69245480Y-45562520D03*
X69245480Y-46062900D03*
X69245480Y-46563280D03*
X69245480Y-47063660D03*
D15*
X69844920Y-47663100D03*
X70345300Y-47663100D03*
X70845680Y-47663100D03*
X71346060Y-47663100D03*
X71846440Y-47663100D03*
X72346820Y-47663100D03*
X72847200Y-47663100D03*
X73345040Y-47663100D03*
X73845420Y-47663100D03*
X74345800Y-47663100D03*
X74846180Y-47663100D03*
X75346560Y-47663100D03*
X75846940Y-47663100D03*
X76347320Y-47663100D03*
D12*
X79639160Y-38615620D03*
X79639160Y-39514780D03*
D16*
X74861420Y-38481000D03*
X75760580Y-38481000D03*
X71569580Y-38862000D03*
X70670420Y-38862000D03*
X75242420Y-50165000D03*
X76141580Y-50165000D03*
X75242420Y-48768000D03*
X76141580Y-48768000D03*
D12*
X68300600Y-46499780D03*
X68300600Y-45600620D03*
X74295000Y-49598580D03*
X74295000Y-48699420D03*
X77406500Y-49535080D03*
X77406500Y-48635920D03*
D16*
X71432420Y-48895000D03*
X72331580Y-48895000D03*
D12*
X68300600Y-48300640D03*
X68300600Y-47401480D03*
D16*
X69420740Y-39065200D03*
X68521580Y-39065200D03*
D12*
X73279000Y-50233580D03*
X73279000Y-49334420D03*
X78740000Y-49143920D03*
X78740000Y-50043080D03*
D16*
X72956420Y-38735000D03*
X73855580Y-38735000D03*
D17*
X69476620Y-50129440D03*
X69476620Y-48831500D03*
X70477380Y-48831500D03*
X70477380Y-50129440D03*
D18*
X79281020Y-41127680D03*
X79281020Y-42402760D03*
X79281020Y-43677840D03*
X79281020Y-44952920D03*
X79281020Y-46228000D03*
M02*
