%TF.GenerationSoftware,KiCad,Pcbnew,4.0.6+dfsg1-1*%
%TF.CreationDate,2017-09-07T21:46:30+02:00*%
%TF.ProjectId,fx2grok-tiny,66783267726F6B2D74696E792E6B6963,rev?*%
%TF.FileFunction,Copper,L1,Top,Signal*%
%FSLAX46Y46*%
G04 Gerber Fmt 4.6, Leading zero omitted, Abs format (unit mm)*
G04 Created by KiCad (PCBNEW 4.0.6+dfsg1-1) date Thu Sep  7 21:46:30 2017*
%MOMM*%
%LPD*%
G01*
G04 APERTURE LIST*
%ADD10C,0.150000*%
%ADD11C,0.127000*%
%ADD12R,0.398780X0.599440*%
%ADD13R,0.762000X0.508000*%
%ADD14R,1.348740X0.398780*%
%ADD15R,1.600200X2.100580*%
%ADD16R,1.899920X1.899920*%
%ADD17R,2.200300X0.759460*%
%ADD18C,0.449580*%
G04 APERTURE END LIST*
D10*
D11*
X76290714Y-45889334D02*
X76290714Y-45695810D01*
X76036714Y-45816763D02*
X76689857Y-45816763D01*
X76762429Y-45792572D01*
X76798714Y-45744191D01*
X76798714Y-45695810D01*
X76798714Y-45526477D02*
X76290714Y-45526477D01*
X76036714Y-45526477D02*
X76073000Y-45550667D01*
X76109286Y-45526477D01*
X76073000Y-45502286D01*
X76036714Y-45526477D01*
X76109286Y-45526477D01*
X76290714Y-45284572D02*
X76798714Y-45284572D01*
X76363286Y-45284572D02*
X76327000Y-45260381D01*
X76290714Y-45212000D01*
X76290714Y-45139429D01*
X76327000Y-45091048D01*
X76399571Y-45066857D01*
X76798714Y-45066857D01*
X76290714Y-44873334D02*
X76798714Y-44752381D01*
X76290714Y-44631429D02*
X76798714Y-44752381D01*
X76980143Y-44800762D01*
X77016429Y-44824953D01*
X77052714Y-44873334D01*
X76036714Y-43954095D02*
X76036714Y-43905714D01*
X76073000Y-43857333D01*
X76109286Y-43833142D01*
X76181857Y-43808952D01*
X76327000Y-43784761D01*
X76508429Y-43784761D01*
X76653571Y-43808952D01*
X76726143Y-43833142D01*
X76762429Y-43857333D01*
X76798714Y-43905714D01*
X76798714Y-43954095D01*
X76762429Y-44002476D01*
X76726143Y-44026666D01*
X76653571Y-44050857D01*
X76508429Y-44075047D01*
X76327000Y-44075047D01*
X76181857Y-44050857D01*
X76109286Y-44026666D01*
X76073000Y-44002476D01*
X76036714Y-43954095D01*
X76726143Y-43567047D02*
X76762429Y-43542856D01*
X76798714Y-43567047D01*
X76762429Y-43591237D01*
X76726143Y-43567047D01*
X76798714Y-43567047D01*
X76798714Y-43059046D02*
X76798714Y-43349332D01*
X76798714Y-43204189D02*
X76036714Y-43204189D01*
X76145571Y-43252570D01*
X76218143Y-43300951D01*
X76254429Y-43349332D01*
X74993500Y-46158453D02*
X74993500Y-45916548D01*
X75586167Y-46067739D02*
X74824167Y-46067739D01*
X74739500Y-46037500D01*
X74697167Y-45977024D01*
X74697167Y-45916548D01*
X75586167Y-45765358D02*
X74993500Y-45432739D01*
X74993500Y-45765358D02*
X75586167Y-45432739D01*
X74781833Y-45221072D02*
X74739500Y-45190834D01*
X74697167Y-45130357D01*
X74697167Y-44979167D01*
X74739500Y-44918691D01*
X74781833Y-44888453D01*
X74866500Y-44858214D01*
X74951167Y-44858214D01*
X75078167Y-44888453D01*
X75586167Y-45251310D01*
X75586167Y-44858214D01*
X74993500Y-44313929D02*
X75713167Y-44313929D01*
X75797833Y-44344167D01*
X75840167Y-44374405D01*
X75882500Y-44434881D01*
X75882500Y-44525595D01*
X75840167Y-44586072D01*
X75543833Y-44313929D02*
X75586167Y-44374405D01*
X75586167Y-44495357D01*
X75543833Y-44555833D01*
X75501500Y-44586072D01*
X75416833Y-44616310D01*
X75162833Y-44616310D01*
X75078167Y-44586072D01*
X75035833Y-44555833D01*
X74993500Y-44495357D01*
X74993500Y-44374405D01*
X75035833Y-44313929D01*
X75586167Y-44011548D02*
X74993500Y-44011548D01*
X75162833Y-44011548D02*
X75078167Y-43981309D01*
X75035833Y-43951071D01*
X74993500Y-43890595D01*
X74993500Y-43830119D01*
X75586167Y-43527738D02*
X75543833Y-43588214D01*
X75501500Y-43618453D01*
X75416833Y-43648691D01*
X75162833Y-43648691D01*
X75078167Y-43618453D01*
X75035833Y-43588214D01*
X74993500Y-43527738D01*
X74993500Y-43437024D01*
X75035833Y-43376548D01*
X75078167Y-43346310D01*
X75162833Y-43316072D01*
X75416833Y-43316072D01*
X75501500Y-43346310D01*
X75543833Y-43376548D01*
X75586167Y-43437024D01*
X75586167Y-43527738D01*
X75586167Y-43043929D02*
X74697167Y-43043929D01*
X75247500Y-42983452D02*
X75586167Y-42802024D01*
X74993500Y-42802024D02*
X75332167Y-43043929D01*
D12*
X75379580Y-38735000D03*
X74480420Y-38735000D03*
X71823580Y-38735000D03*
X70924420Y-38735000D03*
D13*
X73880980Y-40446960D03*
X73880980Y-42351960D03*
X76420980Y-40446960D03*
X73880980Y-41399460D03*
X76420980Y-42351960D03*
D12*
X79189580Y-38989000D03*
X78290420Y-38989000D03*
X68384420Y-38862000D03*
X69283580Y-38862000D03*
X78925420Y-48260000D03*
X79824580Y-48260000D03*
X72331580Y-50165000D03*
X71432420Y-50165000D03*
D14*
X71800720Y-43449240D03*
X71800720Y-44099480D03*
X71800720Y-44749720D03*
X71800720Y-45399960D03*
X71800720Y-46050200D03*
D15*
X71701660Y-41650920D03*
X71701660Y-47851060D03*
D16*
X69151500Y-48648620D03*
X69151500Y-45948600D03*
X69151500Y-43550840D03*
X69151500Y-40850820D03*
D17*
X79281020Y-46248320D03*
X79281020Y-44973240D03*
X79281020Y-43698160D03*
X79281020Y-42423080D03*
X79281020Y-41148000D03*
D18*
X73850500Y-46824900D03*
X73149460Y-46875700D03*
X77800200Y-45974000D03*
X77800200Y-44856400D03*
X77724000Y-43688000D03*
X77800200Y-42646600D03*
X78613000Y-47371000D03*
X74549000Y-46736000D03*
X76174600Y-46939200D03*
X68707000Y-49149000D03*
X77470000Y-40005000D03*
X76454000Y-38354000D03*
X69215000Y-47752000D03*
X78867000Y-40068500D03*
X68326000Y-44958000D03*
X71882000Y-49530000D03*
X70500240Y-40876220D03*
X70104000Y-38227000D03*
X76454000Y-39243000D03*
X79756000Y-50038000D03*
X77406500Y-50165000D03*
X76174600Y-41224200D03*
X75184000Y-49403000D03*
X73152000Y-48641000D03*
X74295000Y-50292000D03*
X72390000Y-39243000D03*
D11*
X73880980Y-40446960D02*
X73880980Y-40233600D01*
X73880980Y-40233600D02*
X75379580Y-38735000D01*
X71800720Y-43449240D02*
X72374760Y-43449240D01*
X72374760Y-43449240D02*
X72390000Y-43434000D01*
X72390000Y-43434000D02*
X72644000Y-43434000D01*
X72644000Y-43434000D02*
X73025000Y-43053000D01*
X73025000Y-43053000D02*
X73025000Y-42545000D01*
X73025000Y-42545000D02*
X73218040Y-42351960D01*
X73218040Y-42351960D02*
X73880980Y-42351960D01*
X75311000Y-38803580D02*
X75379580Y-38735000D01*
X73880980Y-40446960D02*
X74896980Y-40446960D01*
X75300840Y-40850820D02*
X75300840Y-41849040D01*
X74896980Y-40446960D02*
X75300840Y-40850820D01*
X75300840Y-41849040D02*
X74797920Y-42351960D01*
X74797920Y-42351960D02*
X73880980Y-42351960D01*
X73753980Y-46824900D02*
X73850500Y-46824900D01*
X73177400Y-45151040D02*
X73177400Y-46248320D01*
X72750680Y-44724320D02*
X73177400Y-45151040D01*
X72750680Y-44427140D02*
X72750680Y-44724320D01*
X73177400Y-46248320D02*
X73753980Y-46824900D01*
X72423020Y-44099480D02*
X72750680Y-44427140D01*
X71800720Y-44099480D02*
X72423020Y-44099480D01*
X72824340Y-45222160D02*
X72824340Y-46550580D01*
X71800720Y-44749720D02*
X72349360Y-44749720D01*
X72727820Y-45125640D02*
X72824340Y-45222160D01*
X72725280Y-45125640D02*
X72727820Y-45125640D01*
X72349360Y-44749720D02*
X72725280Y-45125640D01*
X72824340Y-46550580D02*
X73149460Y-46875700D01*
X78105000Y-46278800D02*
X79458820Y-46278800D01*
X77800200Y-45974000D02*
X78105000Y-46278800D01*
X77800200Y-44856400D02*
X77947520Y-45003720D01*
X79458820Y-45003720D02*
X77947520Y-45003720D01*
X77734160Y-43698160D02*
X79281020Y-43698160D01*
X77724000Y-43688000D02*
X77734160Y-43698160D01*
X77993240Y-42453560D02*
X79458820Y-42453560D01*
X77800200Y-42646600D02*
X77993240Y-42453560D01*
X78613000Y-47371000D02*
X78925420Y-47683420D01*
X78925420Y-48260000D02*
X78925420Y-47683420D01*
X78925420Y-48260000D02*
X78925420Y-48064420D01*
X75946000Y-46736000D02*
X74549000Y-46736000D01*
X76174600Y-46939200D02*
X75946000Y-46736000D01*
X69151500Y-48704500D02*
X68707000Y-49149000D01*
X70924420Y-38735000D02*
X69410580Y-38735000D01*
X69410580Y-38735000D02*
X69283580Y-38862000D01*
X74480420Y-38735000D02*
X74480420Y-38295580D01*
X76200000Y-38100000D02*
X76454000Y-38354000D01*
X74676000Y-38100000D02*
X76200000Y-38100000D01*
X74480420Y-38295580D02*
X74676000Y-38100000D01*
X71701660Y-41650920D02*
X71701660Y-40439340D01*
X73718420Y-39438580D02*
X74480420Y-38735000D01*
X73279000Y-39878000D02*
X73718420Y-39438580D01*
X72263000Y-39878000D02*
X73279000Y-39878000D01*
X71701660Y-40439340D02*
X72263000Y-39878000D01*
X77470000Y-40005000D02*
X78290420Y-39184580D01*
X78290420Y-39184580D02*
X78290420Y-38989000D01*
X74480420Y-38735000D02*
X74480420Y-38549580D01*
X77089000Y-38989000D02*
X78290420Y-38989000D01*
X76454000Y-38354000D02*
X77089000Y-38989000D01*
X71701660Y-41650920D02*
X71701660Y-40624760D01*
X69283580Y-38862000D02*
X69151500Y-38994080D01*
X69151500Y-38994080D02*
X69151500Y-40850820D01*
X74480420Y-38735000D02*
X74480420Y-38676580D01*
X78290420Y-38989000D02*
X78290420Y-38920420D01*
X69215000Y-47752000D02*
X69151500Y-47815500D01*
X78867000Y-40068500D02*
X79184500Y-40386000D01*
X79184500Y-40386000D02*
X79184500Y-40904160D01*
X79184500Y-40904160D02*
X79458820Y-41178480D01*
X68326000Y-44958000D02*
X69151500Y-45783500D01*
X69151500Y-45783500D02*
X69151500Y-45948600D01*
X69151500Y-48648620D02*
X69151500Y-45948600D01*
X69151500Y-47815500D02*
X69151500Y-48648620D01*
X69151500Y-45948600D02*
X69151500Y-43550840D01*
X69151500Y-40850820D02*
X69151500Y-43550840D01*
X70500240Y-40876220D02*
X69176900Y-40876220D01*
X69176900Y-40876220D02*
X69151500Y-40850820D01*
X69151500Y-43751500D02*
X69151500Y-43550840D01*
X69151500Y-48648620D02*
X70904100Y-48648620D01*
X70904100Y-48648620D02*
X71701660Y-47851060D01*
X69151500Y-48704500D02*
X69151500Y-48648620D01*
X71432420Y-50165000D02*
X70667880Y-50165000D01*
X70667880Y-50165000D02*
X69151500Y-48648620D01*
X71432420Y-50165000D02*
X71432420Y-49979580D01*
X71432420Y-49979580D02*
X71882000Y-49530000D01*
X70904100Y-48648620D02*
X71701660Y-47851060D01*
X71800720Y-47851060D02*
X71701660Y-47851060D01*
X71800720Y-47752000D02*
X71701660Y-47851060D01*
X71800720Y-46050200D02*
X71800720Y-47752000D01*
X71953120Y-41399460D02*
X71701660Y-41650920D01*
X73880980Y-41399460D02*
X71953120Y-41399460D01*
X72453500Y-40899080D02*
X71701660Y-41650920D01*
X71274940Y-41650920D02*
X71701660Y-41650920D01*
X70500240Y-40876220D02*
X71274940Y-41650920D01*
X69951600Y-41650920D02*
X69151500Y-40850820D01*
X68384420Y-38862000D02*
X68384420Y-38295580D01*
X68453000Y-38227000D02*
X70104000Y-38227000D01*
X68384420Y-38295580D02*
X68453000Y-38227000D01*
X76420980Y-40446960D02*
X76420980Y-39276020D01*
X76420980Y-39276020D02*
X76454000Y-39243000D01*
X79824580Y-48260000D02*
X79824580Y-49969420D01*
X79824580Y-49969420D02*
X79756000Y-50038000D01*
X77089000Y-50292000D02*
X74295000Y-50292000D01*
X77406500Y-50165000D02*
X77089000Y-50292000D01*
X76174600Y-40767000D02*
X76420980Y-40520620D01*
X76174600Y-41224200D02*
X76174600Y-40767000D01*
X76420980Y-40520620D02*
X76420980Y-40446960D01*
X73914000Y-49403000D02*
X75184000Y-49403000D01*
X73152000Y-48641000D02*
X73914000Y-49403000D01*
X74295000Y-50292000D02*
X72458580Y-50292000D01*
X72458580Y-50292000D02*
X72331580Y-50165000D01*
X76420980Y-40446960D02*
X76420980Y-40319960D01*
X76420980Y-42351960D02*
X76420980Y-41943020D01*
X78554580Y-39555420D02*
X79189580Y-38989000D01*
X78232000Y-39878000D02*
X78554580Y-39555420D01*
X78232000Y-40132000D02*
X78232000Y-39878000D01*
X76420980Y-41943020D02*
X78232000Y-40132000D01*
X72390000Y-39243000D02*
X71882000Y-38735000D01*
M02*
