%FSLAX45Y45*%
G04 Gerber Fmt 4.5, Leading zero omitted, Abs format (unit mm)*
G04 Created by KiCad (PCBNEW 4.0.6+dfsg1-1) date Fri Sep  8 13:55:38 2017*
%MOMM*%
%LPD*%
G01*
G04 APERTURE LIST*
%ADD10C,0.127000*%
%ADD11C,0.025400*%
%ADD12C,0.200000*%
%ADD13C,0.300000*%
G04 APERTURE END LIST*
D10*
D11*
X6770116Y-4974920D02*
G75*
G03X6870116Y-5074920I100000J0D01*
G01*
X7970116Y-5074920D02*
G75*
G03X8070116Y-4974920I0J100000D01*
G01*
X6870116Y-3774920D02*
G75*
G03X6770116Y-3874920I0J-100000D01*
G01*
X8070116Y-3874920D02*
G75*
G03X7970116Y-3774920I-100000J0D01*
G01*
X7970116Y-3774920D02*
X6870116Y-3774920D01*
X8070116Y-4974920D02*
X8070116Y-3874920D01*
X6870116Y-5074920D02*
X7970116Y-5074920D01*
X6770116Y-3874920D02*
X6770116Y-4974920D01*
D12*
X6822567Y-4485767D02*
X6842633Y-4505833D01*
X6842633Y-4485767D02*
X6822567Y-4505833D01*
X6860667Y-4904867D02*
X6880733Y-4924933D01*
X6880733Y-4904867D02*
X6860667Y-4924933D01*
X6911467Y-4765167D02*
X6931533Y-4785233D01*
X6931533Y-4765167D02*
X6911467Y-4785233D01*
X7000367Y-3812667D02*
X7020433Y-3832733D01*
X7020433Y-3812667D02*
X7000367Y-3832733D01*
X7039991Y-4077589D02*
X7060057Y-4097655D01*
X7060057Y-4077589D02*
X7039991Y-4097655D01*
X7178167Y-4942967D02*
X7198233Y-4963033D01*
X7198233Y-4942967D02*
X7178167Y-4963033D01*
X7228967Y-3914267D02*
X7249033Y-3934333D01*
X7249033Y-3914267D02*
X7228967Y-3934333D01*
X7304913Y-4677537D02*
X7324979Y-4697603D01*
X7324979Y-4677537D02*
X7304913Y-4697603D01*
X7305167Y-4854067D02*
X7325233Y-4874133D01*
X7325233Y-4854067D02*
X7305167Y-4874133D01*
X7375017Y-4672457D02*
X7395083Y-4692523D01*
X7395083Y-4672457D02*
X7375017Y-4692523D01*
X7419467Y-5019167D02*
X7439533Y-5039233D01*
X7439533Y-5019167D02*
X7419467Y-5039233D01*
X7444867Y-4663567D02*
X7464933Y-4683633D01*
X7464933Y-4663567D02*
X7444867Y-4683633D01*
X7508367Y-4930267D02*
X7528433Y-4950333D01*
X7528433Y-4930267D02*
X7508367Y-4950333D01*
X7607427Y-4112387D02*
X7627493Y-4132453D01*
X7627493Y-4112387D02*
X7607427Y-4132453D01*
X7607427Y-4683887D02*
X7627493Y-4703953D01*
X7627493Y-4683887D02*
X7607427Y-4703953D01*
X7635367Y-3825367D02*
X7655433Y-3845433D01*
X7655433Y-3825367D02*
X7635367Y-3845433D01*
X7635367Y-3914267D02*
X7655433Y-3934333D01*
X7655433Y-3914267D02*
X7635367Y-3934333D01*
X7730617Y-5006467D02*
X7750683Y-5026533D01*
X7750683Y-5006467D02*
X7730617Y-5026533D01*
X7762367Y-4099687D02*
X7782433Y-4119753D01*
X7782433Y-4099687D02*
X7762367Y-4119753D01*
X7762367Y-4358767D02*
X7782433Y-4378833D01*
X7782433Y-4358767D02*
X7762367Y-4378833D01*
X7769987Y-4254627D02*
X7790053Y-4274693D01*
X7790053Y-4254627D02*
X7769987Y-4274693D01*
X7769987Y-4475607D02*
X7790053Y-4495673D01*
X7790053Y-4475607D02*
X7769987Y-4495673D01*
X7769987Y-4587367D02*
X7790053Y-4607433D01*
X7790053Y-4587367D02*
X7769987Y-4607433D01*
X7851267Y-4727067D02*
X7871333Y-4747133D01*
X7871333Y-4727067D02*
X7851267Y-4747133D01*
X7965567Y-4993767D02*
X7985633Y-5013833D01*
X7985633Y-4993767D02*
X7965567Y-5013833D01*
D13*
X7040274Y-5541904D02*
X7040274Y-5241904D01*
X7111703Y-5241904D01*
X7154560Y-5256190D01*
X7183132Y-5284762D01*
X7197417Y-5313333D01*
X7211703Y-5370476D01*
X7211703Y-5413333D01*
X7197417Y-5470476D01*
X7183132Y-5499047D01*
X7154560Y-5527619D01*
X7111703Y-5541904D01*
X7040274Y-5541904D01*
X7340274Y-5541904D02*
X7340274Y-5341904D01*
X7340274Y-5399047D02*
X7354560Y-5370476D01*
X7368846Y-5356190D01*
X7397417Y-5341904D01*
X7425989Y-5341904D01*
X7525989Y-5541904D02*
X7525989Y-5341904D01*
X7525989Y-5241904D02*
X7511703Y-5256190D01*
X7525989Y-5270476D01*
X7540274Y-5256190D01*
X7525989Y-5241904D01*
X7525989Y-5270476D01*
X7711703Y-5541904D02*
X7683132Y-5527619D01*
X7668846Y-5499047D01*
X7668846Y-5241904D01*
X7868846Y-5541904D02*
X7840274Y-5527619D01*
X7825989Y-5499047D01*
X7825989Y-5241904D01*
X8211703Y-5541904D02*
X8211703Y-5241904D01*
X8311703Y-5456190D01*
X8411703Y-5241904D01*
X8411703Y-5541904D01*
X8683132Y-5541904D02*
X8683132Y-5384762D01*
X8668846Y-5356190D01*
X8640275Y-5341904D01*
X8583132Y-5341904D01*
X8554560Y-5356190D01*
X8683132Y-5527619D02*
X8654560Y-5541904D01*
X8583132Y-5541904D01*
X8554560Y-5527619D01*
X8540275Y-5499047D01*
X8540275Y-5470476D01*
X8554560Y-5441904D01*
X8583132Y-5427619D01*
X8654560Y-5427619D01*
X8683132Y-5413333D01*
X8825989Y-5341904D02*
X8825989Y-5641904D01*
X8825989Y-5356190D02*
X8854560Y-5341904D01*
X8911703Y-5341904D01*
X8940275Y-5356190D01*
X8954560Y-5370476D01*
X8968846Y-5399047D01*
X8968846Y-5484762D01*
X8954560Y-5513333D01*
X8940275Y-5527619D01*
X8911703Y-5541904D01*
X8854560Y-5541904D01*
X8825989Y-5527619D01*
X9097417Y-5513333D02*
X9111703Y-5527619D01*
X9097417Y-5541904D01*
X9083132Y-5527619D01*
X9097417Y-5513333D01*
X9097417Y-5541904D01*
X9097417Y-5356190D02*
X9111703Y-5370476D01*
X9097417Y-5384762D01*
X9083132Y-5370476D01*
X9097417Y-5356190D01*
X9097417Y-5384762D01*
X6748780Y-6026157D02*
X6768846Y-6046223D01*
X6768846Y-6026157D02*
X6748780Y-6046223D01*
X7097417Y-5871904D02*
X7125989Y-5871904D01*
X7154560Y-5886190D01*
X7168846Y-5900476D01*
X7183132Y-5929047D01*
X7197417Y-5986190D01*
X7197417Y-6057619D01*
X7183132Y-6114761D01*
X7168846Y-6143333D01*
X7154560Y-6157619D01*
X7125989Y-6171904D01*
X7097417Y-6171904D01*
X7068846Y-6157619D01*
X7054560Y-6143333D01*
X7040274Y-6114761D01*
X7025989Y-6057619D01*
X7025989Y-5986190D01*
X7040274Y-5929047D01*
X7054560Y-5900476D01*
X7068846Y-5886190D01*
X7097417Y-5871904D01*
X7325989Y-6143333D02*
X7340274Y-6157619D01*
X7325989Y-6171904D01*
X7311703Y-6157619D01*
X7325989Y-6143333D01*
X7325989Y-6171904D01*
X7454560Y-5900476D02*
X7468846Y-5886190D01*
X7497417Y-5871904D01*
X7568846Y-5871904D01*
X7597417Y-5886190D01*
X7611703Y-5900476D01*
X7625989Y-5929047D01*
X7625989Y-5957619D01*
X7611703Y-6000476D01*
X7440274Y-6171904D01*
X7625989Y-6171904D01*
X7811703Y-5871904D02*
X7840274Y-5871904D01*
X7868846Y-5886190D01*
X7883132Y-5900476D01*
X7897417Y-5929047D01*
X7911703Y-5986190D01*
X7911703Y-6057619D01*
X7897417Y-6114761D01*
X7883132Y-6143333D01*
X7868846Y-6157619D01*
X7840274Y-6171904D01*
X7811703Y-6171904D01*
X7783132Y-6157619D01*
X7768846Y-6143333D01*
X7754560Y-6114761D01*
X7740274Y-6057619D01*
X7740274Y-5986190D01*
X7754560Y-5929047D01*
X7768846Y-5900476D01*
X7783132Y-5886190D01*
X7811703Y-5871904D01*
X8040274Y-6171904D02*
X8040274Y-5971904D01*
X8040274Y-6000476D02*
X8054560Y-5986190D01*
X8083132Y-5971904D01*
X8125989Y-5971904D01*
X8154560Y-5986190D01*
X8168846Y-6014761D01*
X8168846Y-6171904D01*
X8168846Y-6014761D02*
X8183132Y-5986190D01*
X8211703Y-5971904D01*
X8254560Y-5971904D01*
X8283132Y-5986190D01*
X8297417Y-6014761D01*
X8297417Y-6171904D01*
X8440275Y-6171904D02*
X8440275Y-5971904D01*
X8440275Y-6000476D02*
X8454560Y-5986190D01*
X8483132Y-5971904D01*
X8525989Y-5971904D01*
X8554560Y-5986190D01*
X8568846Y-6014761D01*
X8568846Y-6171904D01*
X8568846Y-6014761D02*
X8583132Y-5986190D01*
X8611703Y-5971904D01*
X8654560Y-5971904D01*
X8683132Y-5986190D01*
X8697417Y-6014761D01*
X8697417Y-6171904D01*
X9283132Y-5857619D02*
X9025989Y-6243333D01*
X9668846Y-5871904D02*
X9697417Y-5871904D01*
X9725989Y-5886190D01*
X9740274Y-5900476D01*
X9754560Y-5929047D01*
X9768846Y-5986190D01*
X9768846Y-6057619D01*
X9754560Y-6114761D01*
X9740274Y-6143333D01*
X9725989Y-6157619D01*
X9697417Y-6171904D01*
X9668846Y-6171904D01*
X9640274Y-6157619D01*
X9625989Y-6143333D01*
X9611703Y-6114761D01*
X9597417Y-6057619D01*
X9597417Y-5986190D01*
X9611703Y-5929047D01*
X9625989Y-5900476D01*
X9640274Y-5886190D01*
X9668846Y-5871904D01*
X9897417Y-6143333D02*
X9911703Y-6157619D01*
X9897417Y-6171904D01*
X9883132Y-6157619D01*
X9897417Y-6143333D01*
X9897417Y-6171904D01*
X10097417Y-5871904D02*
X10125989Y-5871904D01*
X10154560Y-5886190D01*
X10168846Y-5900476D01*
X10183132Y-5929047D01*
X10197417Y-5986190D01*
X10197417Y-6057619D01*
X10183132Y-6114761D01*
X10168846Y-6143333D01*
X10154560Y-6157619D01*
X10125989Y-6171904D01*
X10097417Y-6171904D01*
X10068846Y-6157619D01*
X10054560Y-6143333D01*
X10040274Y-6114761D01*
X10025989Y-6057619D01*
X10025989Y-5986190D01*
X10040274Y-5929047D01*
X10054560Y-5900476D01*
X10068846Y-5886190D01*
X10097417Y-5871904D01*
X10383132Y-5871904D02*
X10411703Y-5871904D01*
X10440274Y-5886190D01*
X10454560Y-5900476D01*
X10468846Y-5929047D01*
X10483132Y-5986190D01*
X10483132Y-6057619D01*
X10468846Y-6114761D01*
X10454560Y-6143333D01*
X10440274Y-6157619D01*
X10411703Y-6171904D01*
X10383132Y-6171904D01*
X10354560Y-6157619D01*
X10340274Y-6143333D01*
X10325989Y-6114761D01*
X10311703Y-6057619D01*
X10311703Y-5986190D01*
X10325989Y-5929047D01*
X10340274Y-5900476D01*
X10354560Y-5886190D01*
X10383132Y-5871904D01*
X10654560Y-6000476D02*
X10625989Y-5986190D01*
X10611703Y-5971904D01*
X10597417Y-5943333D01*
X10597417Y-5929047D01*
X10611703Y-5900476D01*
X10625989Y-5886190D01*
X10654560Y-5871904D01*
X10711703Y-5871904D01*
X10740274Y-5886190D01*
X10754560Y-5900476D01*
X10768846Y-5929047D01*
X10768846Y-5943333D01*
X10754560Y-5971904D01*
X10740274Y-5986190D01*
X10711703Y-6000476D01*
X10654560Y-6000476D01*
X10625989Y-6014761D01*
X10611703Y-6029047D01*
X10597417Y-6057619D01*
X10597417Y-6114761D01*
X10611703Y-6143333D01*
X10625989Y-6157619D01*
X10654560Y-6171904D01*
X10711703Y-6171904D01*
X10740274Y-6157619D01*
X10754560Y-6143333D01*
X10768846Y-6114761D01*
X10768846Y-6057619D01*
X10754560Y-6029047D01*
X10740274Y-6014761D01*
X10711703Y-6000476D01*
X10883132Y-5871904D02*
X10883132Y-5929047D01*
X10997417Y-5871904D02*
X10997417Y-5929047D01*
X11440274Y-6286190D02*
X11425989Y-6271904D01*
X11397417Y-6229047D01*
X11383131Y-6200476D01*
X11368846Y-6157619D01*
X11354560Y-6086190D01*
X11354560Y-6029047D01*
X11368846Y-5957619D01*
X11383131Y-5914761D01*
X11397417Y-5886190D01*
X11425989Y-5843333D01*
X11440274Y-5829047D01*
X11540274Y-5900476D02*
X11554560Y-5886190D01*
X11583131Y-5871904D01*
X11654560Y-5871904D01*
X11683131Y-5886190D01*
X11697417Y-5900476D01*
X11711703Y-5929047D01*
X11711703Y-5957619D01*
X11697417Y-6000476D01*
X11525989Y-6171904D01*
X11711703Y-6171904D01*
X11983131Y-5871904D02*
X11840274Y-5871904D01*
X11825989Y-6014761D01*
X11840274Y-6000476D01*
X11868846Y-5986190D01*
X11940274Y-5986190D01*
X11968846Y-6000476D01*
X11983131Y-6014761D01*
X11997417Y-6043333D01*
X11997417Y-6114761D01*
X11983131Y-6143333D01*
X11968846Y-6157619D01*
X11940274Y-6171904D01*
X11868846Y-6171904D01*
X11840274Y-6157619D01*
X11825989Y-6143333D01*
X12354560Y-6171904D02*
X12354560Y-5871904D01*
X12483131Y-6171904D02*
X12483131Y-6014761D01*
X12468846Y-5986190D01*
X12440274Y-5971904D01*
X12397417Y-5971904D01*
X12368846Y-5986190D01*
X12354560Y-6000476D01*
X12668846Y-6171904D02*
X12640274Y-6157619D01*
X12625989Y-6143333D01*
X12611703Y-6114761D01*
X12611703Y-6029047D01*
X12625989Y-6000476D01*
X12640274Y-5986190D01*
X12668846Y-5971904D01*
X12711703Y-5971904D01*
X12740274Y-5986190D01*
X12754560Y-6000476D01*
X12768846Y-6029047D01*
X12768846Y-6114761D01*
X12754560Y-6143333D01*
X12740274Y-6157619D01*
X12711703Y-6171904D01*
X12668846Y-6171904D01*
X12940274Y-6171904D02*
X12911703Y-6157619D01*
X12897417Y-6129047D01*
X12897417Y-5871904D01*
X13168846Y-6157619D02*
X13140274Y-6171904D01*
X13083132Y-6171904D01*
X13054560Y-6157619D01*
X13040274Y-6129047D01*
X13040274Y-6014761D01*
X13054560Y-5986190D01*
X13083132Y-5971904D01*
X13140274Y-5971904D01*
X13168846Y-5986190D01*
X13183132Y-6014761D01*
X13183132Y-6043333D01*
X13040274Y-6071904D01*
X13297417Y-6157619D02*
X13325989Y-6171904D01*
X13383132Y-6171904D01*
X13411703Y-6157619D01*
X13425989Y-6129047D01*
X13425989Y-6114761D01*
X13411703Y-6086190D01*
X13383132Y-6071904D01*
X13340274Y-6071904D01*
X13311703Y-6057619D01*
X13297417Y-6029047D01*
X13297417Y-6014761D01*
X13311703Y-5986190D01*
X13340274Y-5971904D01*
X13383132Y-5971904D01*
X13411703Y-5986190D01*
X13525989Y-6286190D02*
X13540274Y-6271904D01*
X13568846Y-6229047D01*
X13583132Y-6200476D01*
X13597417Y-6157619D01*
X13611703Y-6086190D01*
X13611703Y-6029047D01*
X13597417Y-5957619D01*
X13583132Y-5914761D01*
X13568846Y-5886190D01*
X13540274Y-5843333D01*
X13525989Y-5829047D01*
M02*
