%TF.GenerationSoftware,KiCad,Pcbnew,4.0.6+dfsg1-1*%
%TF.CreationDate,2017-09-08T13:55:37+02:00*%
%TF.ProjectId,fx2grok-tiny,66783267726F6B2D74696E792E6B6963,rev?*%
%TF.FileFunction,Copper,L1,Top,Signal*%
%FSLAX46Y46*%
G04 Gerber Fmt 4.6, Leading zero omitted, Abs format (unit mm)*
G04 Created by KiCad (PCBNEW 4.0.6+dfsg1-1) date Fri Sep  8 13:55:37 2017*
%MOMM*%
%LPD*%
G01*
G04 APERTURE LIST*
%ADD10C,0.150000*%
%ADD11C,0.127000*%
%ADD12C,0.114300*%
%ADD13R,0.398780X0.599440*%
%ADD14R,0.762000X0.508000*%
%ADD15R,2.200300X0.759460*%
%ADD16R,1.348740X0.398780*%
%ADD17R,1.600200X2.100580*%
%ADD18R,1.899920X1.899920*%
%ADD19C,0.449580*%
G04 APERTURE END LIST*
D10*
D11*
X79702660Y-40075152D02*
X79672422Y-40123533D01*
X79672422Y-40196105D01*
X79702660Y-40268676D01*
X79763136Y-40317057D01*
X79823612Y-40341248D01*
X79944565Y-40365438D01*
X80035279Y-40365438D01*
X80156231Y-40341248D01*
X80216708Y-40317057D01*
X80277184Y-40268676D01*
X80307422Y-40196105D01*
X80307422Y-40147724D01*
X80277184Y-40075152D01*
X80246946Y-40050962D01*
X80035279Y-40050962D01*
X80035279Y-40147724D01*
X79530170Y-47222914D02*
X79530170Y-47163486D01*
X79568360Y-47104057D01*
X79606550Y-47074343D01*
X79682931Y-47044629D01*
X79835693Y-47014914D01*
X80026646Y-47014914D01*
X80179408Y-47044629D01*
X80255789Y-47074343D01*
X80293979Y-47104057D01*
X80332170Y-47163486D01*
X80332170Y-47222914D01*
X80293979Y-47282343D01*
X80255789Y-47312057D01*
X80179408Y-47341772D01*
X80026646Y-47371486D01*
X79835693Y-47371486D01*
X79682931Y-47341772D01*
X79606550Y-47312057D01*
X79568360Y-47282343D01*
X79530170Y-47222914D01*
D12*
X76260960Y-45994320D02*
X76260960Y-45820149D01*
X76023893Y-45929006D02*
X76633493Y-45929006D01*
X76701227Y-45907234D01*
X76735093Y-45863692D01*
X76735093Y-45820149D01*
X76735093Y-45667749D02*
X76260960Y-45667749D01*
X76023893Y-45667749D02*
X76057760Y-45689520D01*
X76091627Y-45667749D01*
X76057760Y-45645977D01*
X76023893Y-45667749D01*
X76091627Y-45667749D01*
X76260960Y-45450035D02*
X76735093Y-45450035D01*
X76328693Y-45450035D02*
X76294827Y-45428263D01*
X76260960Y-45384721D01*
X76260960Y-45319406D01*
X76294827Y-45275863D01*
X76362560Y-45254092D01*
X76735093Y-45254092D01*
X76260960Y-45079921D02*
X76735093Y-44971064D01*
X76260960Y-44862206D02*
X76735093Y-44971064D01*
X76904427Y-45014606D01*
X76938293Y-45036378D01*
X76972160Y-45079921D01*
X76023893Y-44252606D02*
X76023893Y-44209063D01*
X76057760Y-44165520D01*
X76091627Y-44143749D01*
X76159360Y-44121978D01*
X76294827Y-44100206D01*
X76464160Y-44100206D01*
X76599627Y-44121978D01*
X76667360Y-44143749D01*
X76701227Y-44165520D01*
X76735093Y-44209063D01*
X76735093Y-44252606D01*
X76701227Y-44296149D01*
X76667360Y-44317920D01*
X76599627Y-44339692D01*
X76464160Y-44361463D01*
X76294827Y-44361463D01*
X76159360Y-44339692D01*
X76091627Y-44317920D01*
X76057760Y-44296149D01*
X76023893Y-44252606D01*
X76667360Y-43904263D02*
X76701227Y-43882491D01*
X76735093Y-43904263D01*
X76701227Y-43926034D01*
X76667360Y-43904263D01*
X76735093Y-43904263D01*
X76735093Y-43447063D02*
X76735093Y-43708320D01*
X76735093Y-43577692D02*
X76023893Y-43577692D01*
X76125493Y-43621235D01*
X76193227Y-43664777D01*
X76227093Y-43708320D01*
D11*
X74994951Y-46093622D02*
X74994951Y-45900098D01*
X75519885Y-46021051D02*
X74844970Y-46021051D01*
X74769980Y-45996860D01*
X74732485Y-45948479D01*
X74732485Y-45900098D01*
X75519885Y-45779146D02*
X74994951Y-45513050D01*
X74994951Y-45779146D02*
X75519885Y-45513050D01*
X74807475Y-45343717D02*
X74769980Y-45319527D01*
X74732485Y-45271146D01*
X74732485Y-45150193D01*
X74769980Y-45101812D01*
X74807475Y-45077622D01*
X74882466Y-45053431D01*
X74957456Y-45053431D01*
X75069942Y-45077622D01*
X75519885Y-45367908D01*
X75519885Y-45053431D01*
X74994951Y-44618002D02*
X75632370Y-44618002D01*
X75707361Y-44642193D01*
X75744856Y-44666383D01*
X75782351Y-44714764D01*
X75782351Y-44787336D01*
X75744856Y-44835717D01*
X75482390Y-44618002D02*
X75519885Y-44666383D01*
X75519885Y-44763145D01*
X75482390Y-44811526D01*
X75444894Y-44835717D01*
X75369904Y-44859907D01*
X75144932Y-44859907D01*
X75069942Y-44835717D01*
X75032447Y-44811526D01*
X74994951Y-44763145D01*
X74994951Y-44666383D01*
X75032447Y-44618002D01*
X75519885Y-44376098D02*
X74994951Y-44376098D01*
X75144932Y-44376098D02*
X75069942Y-44351907D01*
X75032447Y-44327717D01*
X74994951Y-44279336D01*
X74994951Y-44230955D01*
X75519885Y-43989050D02*
X75482390Y-44037431D01*
X75444894Y-44061622D01*
X75369904Y-44085812D01*
X75144932Y-44085812D01*
X75069942Y-44061622D01*
X75032447Y-44037431D01*
X74994951Y-43989050D01*
X74994951Y-43916479D01*
X75032447Y-43868098D01*
X75069942Y-43843907D01*
X75144932Y-43819717D01*
X75369904Y-43819717D01*
X75444894Y-43843907D01*
X75482390Y-43868098D01*
X75519885Y-43916479D01*
X75519885Y-43989050D01*
X75519885Y-43602003D02*
X74732485Y-43602003D01*
X75219923Y-43553622D02*
X75519885Y-43408479D01*
X74994951Y-43408479D02*
X75294913Y-43602003D01*
D13*
X75379580Y-38735000D03*
X74480420Y-38735000D03*
X71823580Y-38735000D03*
X70924420Y-38735000D03*
D14*
X73880980Y-40446960D03*
X73880980Y-42351960D03*
X76420980Y-40446960D03*
X73880980Y-41399460D03*
X76420980Y-42351960D03*
D13*
X68521580Y-39065200D03*
X69420740Y-39065200D03*
X78925420Y-48260000D03*
X79824580Y-48260000D03*
X72331580Y-50165000D03*
X71432420Y-50165000D03*
D15*
X79281020Y-46248320D03*
X79281020Y-44973240D03*
X79281020Y-43698160D03*
X79281020Y-42423080D03*
X79281020Y-41148000D03*
D16*
X71800720Y-43449240D03*
X71800720Y-44099480D03*
X71800720Y-44749720D03*
X71800720Y-45399960D03*
X71800720Y-46050200D03*
D17*
X71701660Y-41650920D03*
X71701660Y-47851060D03*
D18*
X69151500Y-48648620D03*
X69151500Y-45948600D03*
X69151500Y-43550840D03*
X69151500Y-40850820D03*
D19*
X73850500Y-46824900D03*
X73149460Y-46875700D03*
X77800200Y-45974000D03*
X77800200Y-44856400D03*
X77724000Y-43688000D03*
X77800200Y-42646600D03*
X78613000Y-47371000D03*
X77724000Y-41097200D03*
X74549000Y-46736000D03*
X76174600Y-46939200D03*
X68707000Y-49149000D03*
X76454000Y-38354000D03*
X69215000Y-47752000D03*
X68326000Y-44958000D03*
X71882000Y-49530000D03*
X70500240Y-40876220D03*
X70104000Y-38227000D03*
X76454000Y-39243000D03*
X79756000Y-50038000D03*
X77406500Y-50165000D03*
X76174600Y-41224200D03*
X75184000Y-49403000D03*
X73152000Y-48641000D03*
X74295000Y-50292000D03*
X72390000Y-39243000D03*
D11*
X73880980Y-40446960D02*
X73880980Y-40233600D01*
X73880980Y-40233600D02*
X75379580Y-38735000D01*
X71800720Y-43449240D02*
X72374760Y-43449240D01*
X72374760Y-43449240D02*
X72390000Y-43434000D01*
X72390000Y-43434000D02*
X72644000Y-43434000D01*
X72644000Y-43434000D02*
X73025000Y-43053000D01*
X73025000Y-43053000D02*
X73025000Y-42545000D01*
X73025000Y-42545000D02*
X73218040Y-42351960D01*
X73218040Y-42351960D02*
X73880980Y-42351960D01*
X75311000Y-38803580D02*
X75379580Y-38735000D01*
X73880980Y-40446960D02*
X74896980Y-40446960D01*
X75300840Y-40850820D02*
X75300840Y-41849040D01*
X74896980Y-40446960D02*
X75300840Y-40850820D01*
X75300840Y-41849040D02*
X74797920Y-42351960D01*
X74797920Y-42351960D02*
X73880980Y-42351960D01*
X73753980Y-46824900D02*
X73850500Y-46824900D01*
X73177400Y-45151040D02*
X73177400Y-46248320D01*
X72750680Y-44724320D02*
X73177400Y-45151040D01*
X72750680Y-44427140D02*
X72750680Y-44724320D01*
X73177400Y-46248320D02*
X73753980Y-46824900D01*
X72423020Y-44099480D02*
X72750680Y-44427140D01*
X71800720Y-44099480D02*
X72423020Y-44099480D01*
X72824340Y-45222160D02*
X72824340Y-46550580D01*
X71800720Y-44749720D02*
X72349360Y-44749720D01*
X72727820Y-45125640D02*
X72824340Y-45222160D01*
X72725280Y-45125640D02*
X72727820Y-45125640D01*
X72349360Y-44749720D02*
X72725280Y-45125640D01*
X72824340Y-46550580D02*
X73149460Y-46875700D01*
X78105000Y-46278800D02*
X79458820Y-46278800D01*
X77800200Y-45974000D02*
X78105000Y-46278800D01*
X77800200Y-44856400D02*
X77947520Y-45003720D01*
X79458820Y-45003720D02*
X77947520Y-45003720D01*
X77734160Y-43698160D02*
X79281020Y-43698160D01*
X77724000Y-43688000D02*
X77734160Y-43698160D01*
X77993240Y-42453560D02*
X79458820Y-42453560D01*
X77800200Y-42646600D02*
X77993240Y-42453560D01*
X78613000Y-47371000D02*
X78925420Y-47683420D01*
X78925420Y-48260000D02*
X78925420Y-47683420D01*
X78925420Y-48260000D02*
X78925420Y-48064420D01*
X77724000Y-41097200D02*
X79230220Y-41097200D01*
X79230220Y-41097200D02*
X79281020Y-41148000D01*
X77724000Y-39624000D02*
X76454000Y-38354000D01*
X77724000Y-41097200D02*
X77724000Y-39624000D01*
X69151500Y-43550840D02*
X69151500Y-40850820D01*
X75946000Y-46736000D02*
X74549000Y-46736000D01*
X76174600Y-46939200D02*
X75946000Y-46736000D01*
X69151500Y-48704500D02*
X68707000Y-49149000D01*
X70924420Y-38735000D02*
X69410580Y-38735000D01*
X69410580Y-38735000D02*
X69283580Y-38862000D01*
X74480420Y-38735000D02*
X74480420Y-38295580D01*
X76200000Y-38100000D02*
X76464160Y-38364160D01*
X76464160Y-38364160D02*
X76454000Y-38354000D01*
X74676000Y-38100000D02*
X76200000Y-38100000D01*
X74480420Y-38295580D02*
X74676000Y-38100000D01*
X71701660Y-41650920D02*
X71701660Y-40439340D01*
X73718420Y-39438580D02*
X74480420Y-38735000D01*
X73279000Y-39878000D02*
X73718420Y-39438580D01*
X72263000Y-39878000D02*
X73279000Y-39878000D01*
X71701660Y-40439340D02*
X72263000Y-39878000D01*
X74480420Y-38735000D02*
X74480420Y-38549580D01*
X71701660Y-41650920D02*
X71701660Y-40624760D01*
X69283580Y-38862000D02*
X69151500Y-38994080D01*
X69151500Y-38994080D02*
X69151500Y-40850820D01*
X74480420Y-38735000D02*
X74480420Y-38676580D01*
X69215000Y-47752000D02*
X69151500Y-47815500D01*
X79184500Y-40904160D02*
X79458820Y-41178480D01*
X68326000Y-44958000D02*
X69151500Y-45783500D01*
X69151500Y-45783500D02*
X69151500Y-45948600D01*
X69151500Y-48648620D02*
X69151500Y-45948600D01*
X69151500Y-47815500D02*
X69151500Y-48648620D01*
X69151500Y-45948600D02*
X69151500Y-43550840D01*
X70500240Y-40876220D02*
X69176900Y-40876220D01*
X69176900Y-40876220D02*
X69151500Y-40850820D01*
X69151500Y-43751500D02*
X69151500Y-43550840D01*
X69151500Y-48648620D02*
X70904100Y-48648620D01*
X70904100Y-48648620D02*
X71701660Y-47851060D01*
X69151500Y-48704500D02*
X69151500Y-48648620D01*
X71432420Y-50165000D02*
X70667880Y-50165000D01*
X70667880Y-50165000D02*
X69151500Y-48648620D01*
X71432420Y-50165000D02*
X71432420Y-49979580D01*
X71432420Y-49979580D02*
X71882000Y-49530000D01*
X70904100Y-48648620D02*
X71701660Y-47851060D01*
X71800720Y-47851060D02*
X71701660Y-47851060D01*
X71800720Y-47752000D02*
X71701660Y-47851060D01*
X71800720Y-46050200D02*
X71800720Y-47752000D01*
X71953120Y-41399460D02*
X71701660Y-41650920D01*
X73880980Y-41399460D02*
X71953120Y-41399460D01*
X72453500Y-40899080D02*
X71701660Y-41650920D01*
X71274940Y-41650920D02*
X71701660Y-41650920D01*
X70500240Y-40876220D02*
X71274940Y-41650920D01*
X69951600Y-41650920D02*
X69151500Y-40850820D01*
X68521580Y-39065200D02*
X68521580Y-38752780D01*
X69047360Y-38227000D02*
X70104000Y-38227000D01*
X68521580Y-38752780D02*
X69047360Y-38227000D01*
X76420980Y-40446960D02*
X76420980Y-39276020D01*
X76420980Y-39276020D02*
X76454000Y-39243000D01*
X79824580Y-48260000D02*
X79824580Y-49969420D01*
X79824580Y-49969420D02*
X79756000Y-50038000D01*
X77089000Y-50292000D02*
X74295000Y-50292000D01*
X77406500Y-50165000D02*
X77089000Y-50292000D01*
X76174600Y-40767000D02*
X76420980Y-40520620D01*
X76174600Y-41224200D02*
X76174600Y-40767000D01*
X76420980Y-40520620D02*
X76420980Y-40446960D01*
X73914000Y-49403000D02*
X75184000Y-49403000D01*
X73152000Y-48641000D02*
X73914000Y-49403000D01*
X74295000Y-50292000D02*
X72458580Y-50292000D01*
X72458580Y-50292000D02*
X72331580Y-50165000D01*
X76420980Y-40446960D02*
X76420980Y-40319960D01*
X72390000Y-39243000D02*
X71882000Y-38735000D01*
M02*
